<mxfile host="app.diagrams.net" agent="Mozilla/5.0 (Macintosh; Intel Mac OS X 10_15_7) AppleWebKit/537.36 (KHTML, like Gecko) Chrome/135.0.0.0 Safari/537.36" version="26.2.12">
  <diagram name="第 1 页" id="KwGxmZMtyN8JoYDkULUY">
    <mxGraphModel dx="807" dy="431" grid="1" gridSize="10" guides="1" tooltips="1" connect="1" arrows="1" fold="1" page="1" pageScale="1" pageWidth="827" pageHeight="1169" math="0" shadow="0">
      <root>
        <mxCell id="0" />
        <mxCell id="1" parent="0" />
        <mxCell id="eWs5n6P5kUTmqG-R48iR-10" style="edgeStyle=orthogonalEdgeStyle;rounded=0;orthogonalLoop=1;jettySize=auto;html=1;exitX=0.5;exitY=1;exitDx=0;exitDy=0;entryX=0.5;entryY=0;entryDx=0;entryDy=0;" edge="1" parent="1" source="eWs5n6P5kUTmqG-R48iR-1" target="eWs5n6P5kUTmqG-R48iR-3">
          <mxGeometry relative="1" as="geometry" />
        </mxCell>
        <mxCell id="eWs5n6P5kUTmqG-R48iR-1" value="Samples sequenced&lt;div&gt;(n=46)&lt;/div&gt;" style="rounded=0;whiteSpace=wrap;html=1;" vertex="1" parent="1">
          <mxGeometry x="240" y="20" width="160" height="60" as="geometry" />
        </mxCell>
        <mxCell id="eWs5n6P5kUTmqG-R48iR-8" style="edgeStyle=orthogonalEdgeStyle;rounded=0;orthogonalLoop=1;jettySize=auto;html=1;exitX=0.5;exitY=1;exitDx=0;exitDy=0;" edge="1" parent="1" source="eWs5n6P5kUTmqG-R48iR-3" target="eWs5n6P5kUTmqG-R48iR-4">
          <mxGeometry relative="1" as="geometry">
            <Array as="points">
              <mxPoint x="320" y="280" />
              <mxPoint x="220" y="280" />
            </Array>
          </mxGeometry>
        </mxCell>
        <mxCell id="eWs5n6P5kUTmqG-R48iR-15" style="edgeStyle=orthogonalEdgeStyle;rounded=0;orthogonalLoop=1;jettySize=auto;html=1;exitX=0.5;exitY=1;exitDx=0;exitDy=0;entryX=0.5;entryY=0;entryDx=0;entryDy=0;" edge="1" parent="1" source="eWs5n6P5kUTmqG-R48iR-3" target="eWs5n6P5kUTmqG-R48iR-5">
          <mxGeometry relative="1" as="geometry">
            <Array as="points">
              <mxPoint x="320" y="280" />
              <mxPoint x="420" y="280" />
            </Array>
          </mxGeometry>
        </mxCell>
        <mxCell id="eWs5n6P5kUTmqG-R48iR-3" value="Clinical Annotation&lt;div&gt;(n=33)&lt;/div&gt;" style="rounded=0;whiteSpace=wrap;html=1;" vertex="1" parent="1">
          <mxGeometry x="240" y="150" width="160" height="60" as="geometry" />
        </mxCell>
        <mxCell id="eWs5n6P5kUTmqG-R48iR-4" value="Treatment Sensitive&lt;div&gt;(n=14)&lt;/div&gt;" style="rounded=0;whiteSpace=wrap;html=1;" vertex="1" parent="1">
          <mxGeometry x="140" y="330" width="160" height="60" as="geometry" />
        </mxCell>
        <mxCell id="eWs5n6P5kUTmqG-R48iR-5" value="Treatment Resistant&lt;div&gt;(n=13)&lt;/div&gt;" style="rounded=0;whiteSpace=wrap;html=1;" vertex="1" parent="1">
          <mxGeometry x="340" y="330" width="160" height="60" as="geometry" />
        </mxCell>
        <mxCell id="eWs5n6P5kUTmqG-R48iR-11" value="" style="endArrow=classic;html=1;rounded=0;dashed=1;dashPattern=8 8;" edge="1" parent="1">
          <mxGeometry width="50" height="50" relative="1" as="geometry">
            <mxPoint x="320" y="120" as="sourcePoint" />
            <mxPoint x="440" y="120" as="targetPoint" />
          </mxGeometry>
        </mxCell>
        <mxCell id="eWs5n6P5kUTmqG-R48iR-12" value="" style="endArrow=classic;html=1;rounded=0;dashed=1;dashPattern=8 8;" edge="1" parent="1">
          <mxGeometry width="50" height="50" relative="1" as="geometry">
            <mxPoint x="320" y="240" as="sourcePoint" />
            <mxPoint x="440" y="240" as="targetPoint" />
          </mxGeometry>
        </mxCell>
        <mxCell id="eWs5n6P5kUTmqG-R48iR-13" value="Inadequate malignant cells&lt;div&gt;(n=6)&lt;/div&gt;" style="rounded=0;whiteSpace=wrap;html=1;" vertex="1" parent="1">
          <mxGeometry x="440" y="210" width="130" height="50" as="geometry" />
        </mxCell>
        <mxCell id="eWs5n6P5kUTmqG-R48iR-14" value="&lt;div style=&quot;&quot;&gt;&lt;font face=&quot;Helvetica&quot;&gt;&lt;span style=&quot;background-color: transparent; color: light-dark(rgb(0, 0, 0), rgb(255, 255, 255));&quot;&gt;&lt;b style=&quot;&quot;&gt;· &lt;/b&gt;Patient died prior to obtaining 1&lt;sup&gt;st&lt;/sup&gt; restaging scan (n=4)&lt;/span&gt;&lt;br&gt;&lt;b style=&quot;&quot;&gt;· &lt;/b&gt;Patient d&lt;span style=&quot;background-color: transparent; color: light-dark(rgb(0, 0, 0), rgb(255, 255, 255));&quot;&gt;eclined treatment following biopsy (n=2)&lt;/span&gt;&lt;br&gt;&lt;b style=&quot;&quot;&gt;·&amp;nbsp;&lt;/b&gt;&lt;span style=&quot;caret-color: rgb(251, 74, 62); color: rgb(16, 18, 20); white-space-collapse: preserve; background-color: rgb(255, 255, 255);&quot;&gt;Patient received biopsy after starting 1st line treatment but before progression &lt;/span&gt;&lt;span style=&quot;background-color: transparent; color: light-dark(rgb(0, 0, 0), rgb(255, 255, 255));&quot;&gt;(n=6)&lt;/span&gt;&lt;br&gt;&lt;b style=&quot;&quot;&gt;·&amp;nbsp;&lt;/b&gt;Patient did not receive a standard 1&lt;span style=&quot;vertical-align: super;&quot;&gt;st&lt;/span&gt; line&lt;br&gt;therapy containing either FOLFIRINOX or GA&amp;nbsp;&lt;span style=&quot;background-color: transparent; color: light-dark(rgb(0, 0, 0), rgb(255, 255, 255));&quot;&gt;(n=1)&lt;/span&gt;&lt;/font&gt;&lt;/div&gt;" style="rounded=0;whiteSpace=wrap;html=1;align=left;" vertex="1" parent="1">
          <mxGeometry x="440" y="40" width="240" height="150" as="geometry" />
        </mxCell>
        <mxCell id="eWs5n6P5kUTmqG-R48iR-17" value="Single-cell sequencing" style="rounded=0;whiteSpace=wrap;html=1;fillColor=#dae8fc;strokeColor=#6c8ebf;" vertex="1" parent="1">
          <mxGeometry x="20" y="20" width="80" height="80" as="geometry" />
        </mxCell>
        <mxCell id="eWs5n6P5kUTmqG-R48iR-18" value="Clinical annotation" style="rounded=0;whiteSpace=wrap;html=1;fillColor=#dae8fc;strokeColor=#6c8ebf;" vertex="1" parent="1">
          <mxGeometry x="20" y="120" width="80" height="80" as="geometry" />
        </mxCell>
        <mxCell id="eWs5n6P5kUTmqG-R48iR-20" value="Non-malignant cell compartment analysis" style="rounded=0;whiteSpace=wrap;html=1;fillColor=#dae8fc;strokeColor=#6c8ebf;" vertex="1" parent="1">
          <mxGeometry x="20" y="210" width="80" height="80" as="geometry" />
        </mxCell>
        <mxCell id="eWs5n6P5kUTmqG-R48iR-21" value="Malignant cell analysis" style="rounded=0;whiteSpace=wrap;html=1;fillColor=#dae8fc;strokeColor=#6c8ebf;" vertex="1" parent="1">
          <mxGeometry x="20" y="310" width="80" height="80" as="geometry" />
        </mxCell>
      </root>
    </mxGraphModel>
  </diagram>
</mxfile>
